<svg xmlns="http://www.w3.org/2000/svg" width="81" height="29" fill="none"><g fill="#fff" clip-path="url(#a)"><path d="M19.276 24.706v.683h-1.183v3.3H17.4v-3.3h-1.19v-.683h3.066Zm3.615.683h-2.024v.968h1.505l.173.683h-1.678v.968h2.024v.683h-2.717v-3.983h2.717v.68Zm4.145 2.766c-.192.189-.416.34-.67.45a2.1 2.1 0 0 1-.819.159c-.29 0-.562-.052-.819-.159a2.23 2.23 0 0 1-.67-.444 2.17 2.17 0 0 1-.45-.66 2.052 2.052 0 0 1-.16-.809c0-.285.052-.552.16-.801a2.1 2.1 0 0 1 .45-.661c.192-.189.416-.338.67-.444.257-.11.532-.165.819-.165.291 0 .566.055.819.165.254.106.476.253.67.444l-.491.484a1.386 1.386 0 0 0-.456-.301 1.366 1.366 0 0 0-.542-.109c-.19 0-.367.036-.536.109a1.445 1.445 0 0 0-.768.751 1.41 1.41 0 0 0 0 1.063 1.444 1.444 0 0 0 .768.751c.17.069.349.103.536.103a1.385 1.385 0 0 0 .998-.404l.49.478Zm3.21-3.45h.692v3.984h-.692v-1.651h-1.679v1.651h-.692v-3.983h.692v1.649h1.678v-1.65Zm4.042-.005h.693v3.983h-.75l-1.62-2.726v2.726h-.693V24.7h.75l1.62 2.726V24.7Zm3.713.604c-.19 0-.366.036-.535.109a1.445 1.445 0 0 0-.768.751 1.41 1.41 0 0 0 0 1.063 1.443 1.443 0 0 0 .768.751c.169.069.348.103.535.103a1.42 1.42 0 0 0 .998-.404 1.363 1.363 0 0 0 .41-.985 1.365 1.365 0 0 0-.872-1.28 1.351 1.351 0 0 0-.536-.108Zm0-.683c.29 0 .56.055.813.165.258.106.48.253.67.444.191.187.342.406.45.66.112.252.167.52.167.802a2.09 2.09 0 0 1-1.287 1.913 2.082 2.082 0 0 1-.813.159c-.29 0-.562-.052-.819-.159a2.232 2.232 0 0 1-.67-.444 2.17 2.17 0 0 1-.45-.66 2.055 2.055 0 0 1-.16-.809c0-.285.053-.552.16-.801a2.1 2.1 0 0 1 .45-.661c.192-.189.416-.338.67-.444.257-.11.53-.165.82-.165Zm3.717 3.385h1.587v.683h-2.279v-3.977h.692v3.294Zm4.287-2.702c-.19 0-.366.036-.535.109a1.44 1.44 0 0 0-.768.751 1.41 1.41 0 0 0 0 1.063 1.44 1.44 0 0 0 .768.751c.169.069.348.103.535.103a1.41 1.41 0 0 0 1.304-.854 1.416 1.416 0 0 0 0-1.063 1.365 1.365 0 0 0-.306-.45 1.37 1.37 0 0 0-.462-.301 1.335 1.335 0 0 0-.536-.109Zm0-.683c.29 0 .56.055.813.165.259.106.48.253.67.444a2 2 0 0 1 .45.66c.112.252.167.52.167.802 0 .286-.055.555-.167.808-.108.251-.257.47-.45.661a2.082 2.082 0 0 1-1.483.603 2.1 2.1 0 0 1-.818-.159 2.23 2.23 0 0 1-.67-.444 2.17 2.17 0 0 1-.45-.66 2.05 2.05 0 0 1-.162-.809c0-.285.053-.552.161-.801a2.1 2.1 0 0 1 .45-.661 2.1 2.1 0 0 1 .67-.444c.26-.11.532-.165.82-.165Zm7.139 1.73c.008.056.014.114.018.17.008.057.013.115.013.171a2.09 2.09 0 0 1-1.287 1.913 2.085 2.085 0 0 1-.813.159 2.11 2.11 0 0 1-.82-.159 2.225 2.225 0 0 1-.67-.444 2.17 2.17 0 0 1-.45-.66 2.05 2.05 0 0 1-.16-.809c0-.285.053-.552.16-.801a2.098 2.098 0 0 1 1.12-1.105c.257-.11.532-.165.82-.165.29 0 .566.055.818.165.255.106.475.253.664.444l-.484.484a1.37 1.37 0 0 0-.463-.301 1.351 1.351 0 0 0-.535-.109c-.19 0-.367.036-.536.109a1.45 1.45 0 0 0-.768.751 1.416 1.416 0 0 0 0 1.063 1.45 1.45 0 0 0 .768.751c.169.069.348.103.535.103a1.412 1.412 0 0 0 .999-.404c.18-.187.303-.4.368-.643h-1.87l.174-.683h2.399Zm1.676-1.64v3.978h-.692v-3.977h.692Zm3.727.678h-2.024v.968h1.505l.173.683h-1.678v.968h2.024v.683H55.83v-3.983h2.717v.68Zm3.799 2.161c0 .187-.031.356-.092.506a1.074 1.074 0 0 1-.674.621 1.644 1.644 0 0 1-.542.085c-.32 0-.603-.049-.853-.149a2.502 2.502 0 0 1-.617-.348l.478-.472c.126.115.269.201.428.262.096.038.187.062.27.074.086.012.156.018.208.018.1 0 .19-.012.271-.034a.844.844 0 0 0 .22-.103.443.443 0 0 0 .196-.375.374.374 0 0 0-.104-.258.595.595 0 0 0-.208-.148 1.05 1.05 0 0 0-.22-.09l-.207-.063a.133.133 0 0 0-.054-.012.125.125 0 0 1-.04-.018.088.088 0 0 1-.035-.012 5.007 5.007 0 0 1-.352-.119 2.22 2.22 0 0 1-.45-.233c-.35-.23-.526-.516-.526-.853 0-.223.039-.412.116-.563.082-.155.186-.281.312-.376.126-.098.267-.168.422-.21a2.192 2.192 0 0 1 1.16.034 2.6 2.6 0 0 1 .45.192.98.98 0 0 1 .145.103c.043.03.08.058.11.084l-.49.49a1.21 1.21 0 0 0-.319-.232 1.168 1.168 0 0 0-.506-.115.986.986 0 0 0-.433.102c-.168.103-.254.238-.254.404 0 .103.035.19.104.261a.684.684 0 0 0 .208.153c.073.038.15.068.23.09.081.023.155.045.226.063l.07.018c.017.008.054.018.11.034.052.016.117.038.188.068a3.403 3.403 0 0 1 .498.257c.368.25.556.535.556.864ZM19.745 6.015c1.196 0 2.294.225 3.294.675a7.765 7.765 0 0 1 2.641 1.8 8.32 8.32 0 0 1 1.727 2.702 8.8 8.8 0 0 1 .62 3.313 8.717 8.717 0 0 1-.62 3.28 8.398 8.398 0 0 1-1.727 2.702 8.176 8.176 0 0 1-2.641 1.833c-1 .427-2.098.642-3.294.642-1.283 0-2.446-.247-3.488-.739l1.4-3.441c.522.215 1.109.321 1.76.321 1.326 0 2.434-.45 3.326-1.35.913-.9 1.369-1.983 1.369-3.248 0-1.286-.456-2.381-1.369-3.281-.912-.9-2.02-1.35-3.325-1.35-1.261 0-2.37.45-3.326 1.35-.913.9-1.369 1.993-1.369 3.28v8.04H10.81V.002h3.913V7.72c.63-.492 1.358-.9 2.185-1.221.827-.323 1.772-.484 2.837-.484ZM29.82 22.512V6.432h3.912v16.08H29.82Zm0-22.51h3.912v3.86H29.82V.001Zm14.326 9.84c-1.304 0-2.414.45-3.326 1.35-.913.9-1.369 1.993-1.369 3.28 0 1.266.456 2.349 1.369 3.249.434.45.935.794 1.499 1.029a5.265 5.265 0 0 0 1.825.321c.629 0 1.228-.107 1.792-.321a4.795 4.795 0 0 0 1.531-1.029c.913-.9 1.37-1.983 1.37-3.248 0-1.286-.457-2.381-1.37-3.281-.95-.9-2.06-1.35-3.321-1.35Zm0-3.86c1.195 0 2.313.226 3.358.676a8.427 8.427 0 0 1 2.74 1.8 8.251 8.251 0 0 1 1.824 2.702 8.08 8.08 0 0 1 .685 3.313 8.004 8.004 0 0 1-.685 3.28 8.293 8.293 0 0 1-1.825 2.702 8.88 8.88 0 0 1-2.739 1.834 8.763 8.763 0 0 1-3.358.643 8.763 8.763 0 0 1-3.359-.643 8.742 8.742 0 0 1-4.599-4.536 8.361 8.361 0 0 1-.651-3.28c0-1.18.218-2.285.651-3.313a8.72 8.72 0 0 1 1.86-2.702 8.382 8.382 0 0 1 2.74-1.8 8.395 8.395 0 0 1 3.358-.675Zm17.943-2.12a3.7 3.7 0 0 0-1.532.32c-.456.194-.87.46-1.238.804a4.14 4.14 0 0 0-.847 1.222c-.218.45-.326.944-.326 1.478h2.315l.978 3.86h-3.294v10.966h-3.912V7.686a7.867 7.867 0 0 1 .62-2.927 7.58 7.58 0 0 1 1.694-2.509A7.67 7.67 0 0 1 59.09.579a7.944 7.944 0 0 1 3-.579v3.861h-.002Zm18.914 2.57-7.564 16.08-1.01 2.188a7.233 7.233 0 0 1-2.74 3.12c-1.218.771-2.564 1.157-4.042 1.157H63.92l.977-3.86h.945c.63 0 1.218-.17 1.76-.513a3.117 3.117 0 0 0 1.206-1.383l.325-.707-7.564-16.08h4.304l5.411 11.514 5.412-11.513h4.307v-.002ZM4.631 22.826c2.558 0 4.632-2.045 4.632-4.568 0-2.523-2.074-4.568-4.632-4.568C2.074 13.69 0 15.735 0 18.258c0 2.523 2.074 4.568 4.631 4.568Z"/></g><defs><clipPath id="a"><path fill="#fff" d="M0 0h81v29H0z"/></clipPath></defs></svg>